<?xml version="1.0" standalone="no"?>
<!DOCTYPE svg PUBLIC "-//W3C//DTD SVG 20010904//EN"
 "http://www.w3.org/TR/2001/REC-SVG-20010904/DTD/svg10.dtd">
<svg version="1.0" xmlns="http://www.w3.org/2000/svg"
 width="512.000000pt" height="512.000000pt" viewBox="0 0 512.000000 512.000000"
 preserveAspectRatio="xMidYMid meet">

<g transform="translate(0.000000,550.000000) scale(0.100000,-0.100000)"
fill="#000000" stroke="none">
<path d="M275 4901 c-11 -5 -31 -21 -45 -36 l-25 -27 0 -774 0 -774 33 -32
c28 -28 39 -33 82 -33 l50 0 167 167 168 168 633 -633 632 -632 0 -1003 c0
-1105 -4 -1034 61 -1068 43 -22 1016 -21 1059 1 63 33 60 -24 60 1072 l0 998
632 632 633 633 166 -166 c147 -147 170 -166 205 -171 45 -5 100 25 121 67 10
20 12 190 10 787 l-2 763 -33 32 -32 33 -776 0 -776 0 -29 -32 c-33 -38 -44
-72 -34 -110 4 -17 69 -91 171 -193 l164 -165 -505 -505 -505 -505 -505 505
-505 505 164 165 c102 102 167 176 171 193 10 38 -1 72 -34 110 l-29 32 -764
2 c-420 1 -772 -2 -783 -6z"/>
</g>
</svg>
